<svg width="165" height="64" viewBox="0 0 165 64" fill="none" xmlns="http://www.w3.org/2000/svg">
<rect width="64" height="64" fill="#E57A5A"/>
<path d="M84.06 30.864V17.298H87.784V45H84.06V43.328C82.8187 44.772 81.2227 45.494 79.272 45.494C76.916 45.494 75.0287 44.658 73.61 42.986C72.2167 41.314 71.52 39.3127 71.52 36.982C71.52 34.4487 72.2673 32.422 73.762 30.902C75.282 29.3567 77.1313 28.584 79.31 28.584C81.3113 28.584 82.8947 29.344 84.06 30.864ZM79.766 31.928C78.4487 31.928 77.372 32.422 76.536 33.41C75.7253 34.398 75.32 35.614 75.32 37.058C75.32 38.4767 75.7253 39.68 76.536 40.668C77.372 41.656 78.4487 42.15 79.766 42.15C81.0327 42.15 82.0967 41.7067 82.958 40.82C83.8447 39.9333 84.288 38.692 84.288 37.096C84.288 35.4493 83.8447 34.1827 82.958 33.296C82.0967 32.384 81.0327 31.928 79.766 31.928ZM92.5064 29.002H96.2304V45H92.5064V29.002ZM92.6584 24.1C92.2024 23.644 91.9744 23.074 91.9744 22.39C91.9744 21.706 92.2024 21.136 92.6584 20.68C93.1144 20.224 93.6844 19.996 94.3684 19.996C95.0524 19.996 95.6224 20.224 96.0784 20.68C96.5344 21.136 96.7624 21.706 96.7624 22.39C96.7624 23.074 96.5344 23.644 96.0784 24.1C95.6224 24.556 95.0524 24.784 94.3684 24.784C93.6844 24.784 93.1144 24.556 92.6584 24.1ZM112.634 30.75V29.002H116.358V43.708C116.358 45.7853 116.181 47.47 115.826 48.762C115.472 50.0793 114.775 51.1687 113.736 52.03C112.343 53.17 110.57 53.74 108.416 53.74C106.238 53.74 104.49 53.0813 103.172 51.764C101.88 50.472 101.095 48.8127 100.816 46.786H104.426C104.604 47.7993 104.996 48.6353 105.604 49.294C106.288 50.0287 107.251 50.396 108.492 50.396C109.734 50.396 110.709 50.0413 111.418 49.332C112.229 48.5467 112.634 47.204 112.634 45.304V43.214C111.444 44.734 109.822 45.494 107.77 45.494C105.617 45.494 103.856 44.772 102.488 43.328C100.892 41.656 100.094 39.5407 100.094 36.982C100.094 34.4233 100.88 32.3587 102.45 30.788C103.894 29.3187 105.706 28.584 107.884 28.584C109.835 28.584 111.418 29.306 112.634 30.75ZM108.34 31.928C107.2 31.928 106.263 32.2827 105.528 32.992C104.439 34.0053 103.894 35.3607 103.894 37.058C103.894 38.806 104.426 40.1487 105.49 41.086C106.301 41.7953 107.251 42.15 108.34 42.15C109.582 42.15 110.62 41.7193 111.456 40.858C112.394 39.8447 112.862 38.5907 112.862 37.096C112.862 35.3733 112.356 34.0307 111.342 33.068C110.582 32.308 109.582 31.928 108.34 31.928ZM121.081 29.002H124.805V45H121.081V29.002ZM121.233 24.1C120.777 23.644 120.549 23.074 120.549 22.39C120.549 21.706 120.777 21.136 121.233 20.68C121.689 20.224 122.259 19.996 122.943 19.996C123.627 19.996 124.197 20.224 124.653 20.68C125.109 21.136 125.337 21.706 125.337 22.39C125.337 23.074 125.109 23.644 124.653 24.1C124.197 24.556 123.627 24.784 122.943 24.784C122.259 24.784 121.689 24.556 121.233 24.1ZM136.192 32.422H133.342V45H129.618V32.422H128.06V29.002H129.618V23.15H133.342V29.002H136.192V32.422ZM150.412 30.864V29.002H154.136V45H150.412V43.328C149.17 44.772 147.574 45.494 145.624 45.494C143.268 45.494 141.38 44.658 139.962 42.986C138.568 41.314 137.872 39.3127 137.872 36.982C137.872 34.4487 138.619 32.422 140.114 30.902C141.634 29.3567 143.483 28.584 145.662 28.584C147.663 28.584 149.246 29.344 150.412 30.864ZM146.118 31.928C144.8 31.928 143.724 32.422 142.888 33.41C142.077 34.398 141.672 35.614 141.672 37.058C141.672 38.4767 142.077 39.68 142.888 40.668C143.724 41.656 144.8 42.15 146.118 42.15C147.384 42.15 148.448 41.7067 149.31 40.82C150.196 39.9333 150.64 38.692 150.64 37.096C150.64 35.4493 150.196 34.1827 149.31 33.296C148.448 32.384 147.384 31.928 146.118 31.928ZM158.858 17.298H162.582V45H158.858V17.298Z" fill="#1C1C1C"/>
<path d="M11.08 17.298V30.864C12.2453 29.344 13.8287 28.584 15.83 28.584C18.0087 28.584 19.8453 29.3567 21.34 30.902C22.86 32.422 23.62 34.4487 23.62 36.982C23.62 39.3127 22.9107 41.314 21.492 42.986C20.0987 44.658 18.224 45.494 15.868 45.494C13.9173 45.494 12.3213 44.772 11.08 43.328V45H7.356V17.298H11.08ZM15.374 31.928C14.1073 31.928 13.0307 32.384 12.144 33.296C11.2827 34.1827 10.852 35.4493 10.852 37.096C10.852 38.692 11.2827 39.9333 12.144 40.82C13.0307 41.7067 14.1073 42.15 15.374 42.15C16.6913 42.15 17.7553 41.656 18.566 40.668C19.402 39.68 19.82 38.4767 19.82 37.058C19.82 35.614 19.402 34.398 18.566 33.41C17.7553 32.422 16.6913 31.928 15.374 31.928ZM30.1664 45.608L28.0384 44.05L33.8524 35.956C33.1177 36.184 32.3704 36.298 31.6104 36.298C29.2037 36.298 27.2277 35.5 25.6824 33.904C24.1624 32.308 23.4024 30.3193 23.4024 27.938C23.4024 25.4047 24.2131 23.3273 25.8344 21.706C27.4811 20.0593 29.5711 19.236 32.1044 19.236C33.9791 19.236 35.6004 19.692 36.9684 20.604C38.3617 21.4907 39.3624 22.58 39.9704 23.872C40.5784 25.1387 40.8824 26.4687 40.8824 27.862C40.8824 29.8127 40.1857 31.7507 38.7924 33.676L30.1664 45.608ZM32.1424 21.82C30.4197 21.82 29.0011 22.4027 27.8864 23.568C26.7717 24.708 26.2144 26.1393 26.2144 27.862C26.2144 29.5593 26.7717 30.9653 27.8864 32.08C29.0264 33.1693 30.4577 33.714 32.1804 33.714C33.9031 33.714 35.3091 33.1567 36.3984 32.042C37.5131 30.9273 38.0704 29.534 38.0704 27.862C38.0704 26.1393 37.5131 24.708 36.3984 23.568C35.3091 22.4027 33.8904 21.82 32.1424 21.82ZM55.9028 19.654V22.238H47.7708L46.1368 27.71C46.5674 27.6087 47.0994 27.558 47.7328 27.558C50.2408 27.558 52.2548 28.394 53.7748 30.066C55.3201 31.738 56.0928 33.828 56.0928 36.336C56.0928 39.072 55.1935 41.276 53.3948 42.948C51.6215 44.62 49.4428 45.456 46.8588 45.456C44.6801 45.456 42.7928 44.7973 41.1968 43.48C40.2848 42.6947 39.5501 41.8333 38.9928 40.896L41.2348 39.3C41.6148 40.06 42.1848 40.744 42.9448 41.352C44.1861 42.3653 45.5541 42.872 47.0488 42.872C48.8221 42.872 50.3041 42.2387 51.4948 40.972C52.6855 39.7053 53.2808 38.1727 53.2808 36.374C53.2808 34.55 52.6855 33.0553 51.4948 31.89C50.3294 30.7247 48.8474 30.142 47.0488 30.142C45.4528 30.142 43.8188 30.7247 42.1468 31.89L45.8328 19.654H55.9028Z" fill="white"/>
</svg>
